<?xml version="1.0" standalone="no"?><!DOCTYPE svg PUBLIC "-//W3C//DTD SVG 1.1//EN" "http://www.w3.org/Graphics/SVG/1.1/DTD/svg11.dtd"><svg t="1774856723940" class="icon" viewBox="0 0 1024 1024" version="1.1" xmlns="http://www.w3.org/2000/svg" p-id="2779" xmlns:xlink="http://www.w3.org/1999/xlink" width="32" height="32"><path d="M939.625813 836.57728 824.7808 140.612267c-6.01088-31.081813-36.113067-51.408213-67.23584-45.397333 0 0-51.653973 8.833707-118.360747 20.24448 112.715093 358.84032 123.224747 409.268907 187.190613 689.053013 15.377067 51.694933-23.190187 50.305707-23.190187 50.305707 3.109547 16.073387-298.10688 97.744213-357.082453 118.644053 11.9808 7.69024 26.8288 10.963627 41.878187 8.05888l406.24128-77.745493C925.303467 897.76128 945.629867 867.659093 939.625813 836.57728z" fill="#d81e06" p-id="2780"></path><path d="M788.66432 767.41632 573.211307 95.744c-10.513067-29.893973-43.270827-45.602133-73.168213-35.089067L103.20896 190.62784c-29.897387 10.509653-45.59872 43.229867-35.089067 73.127253L289.949013 941.806933c10.513067 29.856427 43.229867 45.561173 73.127253 35.09248l390.495573-136.35584C783.469227 830.03392 799.173973 797.313707 788.66432 767.41632zM450.532693 585.92256l44.970667 51.51744-52.814507 25.787733-17.711787-66.747733-0.027307-0.006827c-1.307307 5.024427-2.90816 9.806507-4.785493 14.332587-30.027093 72.311467-129.000107 79.803733-167.8848-16.88576-24.907093-62.08512 24.296107-106.581333 51.162453-147.647147 24.579413-37.625173 40.448-83.063467 38.526293-98.194773 9.652907 12.43136 48.87552 35.089067 95.21152 44.741973 47.81056 9.898667 114.025813 10.717867 138.113707 73.127253C615.297707 569.617067 527.24736 636.6208 450.532693 585.92256z" fill="#d81e06" p-id="2781"></path></svg>
